<?xml version="1.0" encoding="UTF-8" standalone="no"?>
<!DOCTYPE svg PUBLIC "-//W3C//DTD SVG 1.1//EN" "http://www.w3.org/Graphics/SVG/1.1/DTD/svg11.dtd">
<svg xmlns="http://www.w3.org/2000/svg" version="1.1" viewBox="0.00 0.00 502.00 497.00">
<path fill="#e0e0e2" d="
  M 267.31 147.21
  C 244.08 170.19 220.96 193.43 197.81 216.57
  C 195.89 218.49 196.27 218.64 196.29 221.58
  Q 196.38 241.68 196.42 261.78
  Q 196.42 262.29 196.79 262.66
  L 265.94 331.83
  Q 267.86 333.74 265.15 333.74
  Q 239.81 333.76 213.28 333.76
  C 208.00 333.77 206.83 332.86 203.35 329.40
  Q 175.46 301.66 147.70 273.80
  C 145.82 271.91 145.25 270.68 145.25 267.85
  Q 145.25 239.04 145.25 210.45
  A 3.21 3.21 0.0 0 1 146.19 208.18
  L 207.58 146.79
  Q 207.87 146.50 208.28 146.50
  L 267.02 146.50
  A 0.41 0.41 0.0 0 1 267.31 147.21
  Z"
/>
<path fill="#e0e0e2" d="
  M 246.90 189.65
  L 289.82 146.82
  Q 290.14 146.50 290.67 146.50
  L 349.01 146.50
  A 0.56 0.55 -67.4 0 1 349.40 147.45
  Q 329.06 167.84 308.83 188.08
  Q 306.13 190.79 302.19 190.79
  Q 274.62 190.79 247.34 190.72
  A 0.63 0.63 0.0 0 1 246.90 189.65
  Z"
/>
<path fill="#e0e0e2" d="
  M 348.92 332.80
  Q 349.87 333.75 348.53 333.75
  Q 320.91 333.75 292.50 333.75
  Q 289.44 333.75 286.85 331.15
  Q 266.47 310.76 246.40 290.33
  A 0.49 0.49 0.0 0 1 246.75 289.50
  L 304.59 289.50
  A 2.49 2.44 -21.9 0 1 306.35 290.23
  L 348.92 332.80
  Z"
/>
</svg>
